<?xml version="1.0" encoding="utf-8"?>
<!-- Generator: Adobe Illustrator 24.0.0, SVG Export Plug-In . SVG Version: 6.00 Build 0)  -->
<svg version="1.1" id="Layer_1" xmlns="http://www.w3.org/2000/svg" xmlns:xlink="http://www.w3.org/1999/xlink" x="0px" y="0px"
	 viewBox="0 0 64 64" style="enable-background:new 0 0 64 64;" xml:space="preserve">
<style type="text/css">
	.st0{fill:none;stroke:#9BD239;stroke-width:2;stroke-linecap:round;stroke-linejoin:round;stroke-miterlimit:10;}
</style>
<g>
	<path class="st0" d="M43.35,47.11c0,0,4,8,8,8s4-3,4-3v-6.29c0-2.45-0.45-4.89-1.33-7.18l-2.68-6.97
		c-0.59-1.54-2.08-2.56-3.73-2.56H17.1c-1.66,0-3.14,1.02-3.73,2.56l-2.68,6.97c-0.88,2.29-1.33,4.72-1.33,7.18v6.29c0,0,0,3,4,3
		s8-8,8-8"/>
	<circle class="st0" cx="27.35" cy="46.11" r="3"/>
	<circle class="st0" cx="37.35" cy="46.11" r="3"/>
	<line class="st0" x1="28.35" y1="39.11" x2="30.35" y2="39.11"/>
	<line class="st0" x1="34.35" y1="39.11" x2="36.35" y2="39.11"/>
	<g>
		<circle class="st0" cx="44.35" cy="37.11" r="5"/>
		<g>
			<line class="st0" x1="44.35" y1="35.11" x2="44.35" y2="35.11"/>
			<line class="st0" x1="42.35" y1="37.11" x2="42.35" y2="37.11"/>
			<line class="st0" x1="46.35" y1="37.11" x2="46.35" y2="37.11"/>
			<line class="st0" x1="44.35" y1="39.11" x2="44.35" y2="39.11"/>
		</g>
	</g>
	<g>
		<circle class="st0" cx="20.35" cy="37.11" r="5"/>
		<g>
			<line class="st0" x1="20.35" y1="35.11" x2="20.35" y2="39.11"/>
			<line class="st0" x1="22.35" y1="37.11" x2="18.35" y2="37.11"/>
		</g>
	</g>
	<g>
		<line class="st0" x1="30.35" y1="27.11" x2="34.35" y2="27.11"/>
		<path class="st0" d="M32.35,27.11v-6c0-2.21,1.79-4,4-4h2c2.21,0,4-1.79,4-4v-4"/>
	</g>
</g>
</svg>
