<?xml version="1.0" encoding="utf-8"?>
<!-- Generator: Adobe Illustrator 24.0.0, SVG Export Plug-In . SVG Version: 6.00 Build 0)  -->
<svg version="1.1" id="Layer_1" xmlns="http://www.w3.org/2000/svg" xmlns:xlink="http://www.w3.org/1999/xlink" x="0px" y="0px"
	 viewBox="0 0 64 64" style="enable-background:new 0 0 64 64;" xml:space="preserve">
<style type="text/css">
	.st0{fill:none;stroke:#9BD239;stroke-width:2;stroke-linecap:round;stroke-linejoin:round;stroke-miterlimit:10;}
</style>
<g>
	<g>
		<path class="st0" d="M49.35,55.11v-23c0-9.39-7.61-17-17-17l0,0c-9.39,0-17,7.61-17,17v23l4-2l4,2l4-2l5,2l5-2l4,2l4-2
			L49.35,55.11z"/>
		<polyline class="st0" points="23.35,41.11 27.35,39.11 32.35,41.11 37.35,39.11 41.35,41.11 		"/>
		<circle class="st0" cx="38.35" cy="27.11" r="4"/>
		<g>
			<line class="st0" x1="22.35" y1="24.11" x2="28.35" y2="30.11"/>
			<line class="st0" x1="28.35" y1="24.11" x2="22.35" y2="30.11"/>
		</g>
		<g>
			<line class="st0" x1="46.35" y1="46.11" x2="46.35" y2="50.11"/>
			<line class="st0" x1="46.35" y1="43.11" x2="46.35" y2="42.11"/>
		</g>
	</g>
	<g>
		<line class="st0" x1="13.35" y1="9.11" x2="13.35" y2="11.11"/>
		<line class="st0" x1="13.35" y1="15.11" x2="13.35" y2="17.11"/>
		<line class="st0" x1="17.35" y1="13.11" x2="15.35" y2="13.11"/>
		<line class="st0" x1="11.35" y1="13.11" x2="9.35" y2="13.11"/>
	</g>
	<g>
		<line class="st0" x1="55.35" y1="15.11" x2="51.35" y2="15.11"/>
		<line class="st0" x1="53.35" y1="17.11" x2="53.35" y2="13.11"/>
	</g>
</g>
</svg>
