<?xml version="1.0" encoding="utf-8"?>
<!-- Generator: Adobe Illustrator 24.0.0, SVG Export Plug-In . SVG Version: 6.00 Build 0)  -->
<svg version="1.1" id="Layer_1" xmlns="http://www.w3.org/2000/svg" xmlns:xlink="http://www.w3.org/1999/xlink" x="0px" y="0px"
	 viewBox="0 0 64 64" style="enable-background:new 0 0 64 64;" xml:space="preserve">
<style type="text/css">
	.st0{fill:none;stroke:#9BD239;stroke-width:2;stroke-linecap:round;stroke-linejoin:round;stroke-miterlimit:10;}
</style>
<g>
	<g>
		<g>
			<path class="st0" d="M24.33,31.11c0.63-0.84,1.02-1.87,1.02-3c0-2.76-2.24-5-5-5c-2.76,0-5,2.24-5,5c0,1.13,0.39,2.16,1.02,3
				H9.35v9.03c0.91-1.22,2.36-2.03,4-2.03c2.76,0,5,2.24,5,5c0,2.76-2.24,5-5,5c-1.64,0-3.09-0.8-4-2.03v9.03h24v-24H24.33z"/>
			<polyline class="st0" points="30.35,48.11 30.35,52.11 26.35,52.11 			"/>
		</g>
		<g>
			<path class="st0" d="M36.35,53.11l2,2l6-6c-2.76,0-5-2.24-5-5c0-2.76,2.24-5,5-5c2.76,0,5,2.24,5,5l6-6l-6-6c2.76,0,5-2.24,5-5
				s-2.24-5-5-5c-2.76,0-5,2.24-5,5l-6-6l-7,7"/>
			<polyline class="st0" points="36.35,28.11 38.35,26.11 40.35,28.11 			"/>
		</g>
	</g>
	<g>
		<line class="st0" x1="17.35" y1="9.11" x2="17.35" y2="11.11"/>
		<line class="st0" x1="17.35" y1="15.11" x2="17.35" y2="17.11"/>
		<line class="st0" x1="21.35" y1="13.11" x2="19.35" y2="13.11"/>
		<line class="st0" x1="15.35" y1="13.11" x2="13.35" y2="13.11"/>
	</g>
	<g>
		<line class="st0" x1="50.35" y1="16.11" x2="46.35" y2="16.11"/>
		<line class="st0" x1="48.35" y1="18.11" x2="48.35" y2="14.11"/>
	</g>
	<g>
		<line class="st0" x1="30.35" y1="20.11" x2="26.35" y2="20.11"/>
		<line class="st0" x1="28.35" y1="22.11" x2="28.35" y2="18.11"/>
	</g>
</g>
</svg>
