<?xml version="1.0" encoding="utf-8"?>
<!-- Generator: Adobe Illustrator 24.0.0, SVG Export Plug-In . SVG Version: 6.00 Build 0)  -->
<svg version="1.1" id="Layer_1" xmlns="http://www.w3.org/2000/svg" xmlns:xlink="http://www.w3.org/1999/xlink" x="0px" y="0px"
	 viewBox="0 0 64 64" style="enable-background:new 0 0 64 64;" xml:space="preserve">
<style type="text/css">
	.st0{fill:none;stroke:#9BD239;stroke-width:2;stroke-linecap:round;stroke-linejoin:round;stroke-miterlimit:10;}
</style>
<g>
	<g>
		<path class="st0" d="M15.35,33.11l-3,5h6c0,0,1,11,7,11s8,1,8,6"/>
		<path class="st0" d="M49.35,51.11l-2-12c2.85-3.18,5-7.39,5-12c0-9.94-8.06-18-18-18c-6.26,0-11.78,3.2-15,8.05"/>
	</g>
	<g>
		<g>
			<path class="st0" d="M35.35,32.16c-3.3,0.63-6.65,0.95-10,0.95s-6.7-0.32-10-0.95c0-4.7,0-9.4,0-14.1c3.3-0.63,6.65-0.95,10-0.95
				s6.7,0.32,10,0.95C35.35,22.76,35.35,27.46,35.35,32.16z"/>
			<line class="st0" x1="15.35" y1="23.11" x2="31.35" y2="23.11"/>
			<g>
				<line class="st0" x1="15.35" y1="27.11" x2="25.35" y2="27.11"/>
				<line class="st0" x1="31.35" y1="27.11" x2="29.35" y2="27.11"/>
			</g>
		</g>
		<g>
			<circle class="st0" cx="43.35" cy="25.11" r="8"/>
			<g>
				<path class="st0" d="M45.35,28.58c-0.59,0.34-1.27,0.54-2,0.54c-2.21,0-4-1.79-4-4s1.79-4,4-4c2.21,0,4,1.79,4,4"/>
			</g>
		</g>
	</g>
</g>
</svg>
